<svg width="95" height="15" viewBox="0 0 95 15" fill="none" xmlns="http://www.w3.org/2000/svg">
<g clip-path="url(#clip0_53_1252)">
<path d="M14.9609 5.75397C14.8627 5.45024 14.5933 5.23451 14.2746 5.20579L9.94518 4.81267L8.23321 0.805653C8.10698 0.51199 7.81949 0.321899 7.50008 0.321899C7.18067 0.321899 6.89319 0.51199 6.76695 0.80634L5.05499 4.81267L0.724886 5.20579C0.406732 5.2352 0.138017 5.45024 0.0392524 5.75397C-0.0595127 6.0577 0.0316991 6.39085 0.272375 6.60085L3.5449 9.47087L2.57991 13.7217C2.5093 14.0342 2.63061 14.3573 2.88994 14.5447C3.02933 14.6454 3.19241 14.6967 3.35687 14.6967C3.49866 14.6967 3.63932 14.6585 3.76555 14.583L7.50008 12.351L11.2332 14.583C11.5064 14.7473 11.8508 14.7323 12.1095 14.5447C12.369 14.3567 12.4902 14.0335 12.4196 13.7217L11.4546 9.47087L14.7271 6.60143C14.9678 6.39085 15.0597 6.05828 14.9609 5.75397Z" fill="#FFC107"/>
</g>
<g clip-path="url(#clip1_53_1252)">
<path d="M34.9609 5.75397C34.8627 5.45024 34.5933 5.23451 34.2746 5.20579L29.9452 4.81267L28.2332 0.805653C28.107 0.51199 27.8195 0.321899 27.5001 0.321899C27.1807 0.321899 26.8932 0.51199 26.767 0.80634L25.055 4.81267L20.7249 5.20579C20.4067 5.2352 20.138 5.45024 20.0393 5.75397C19.9405 6.0577 20.0317 6.39085 20.2724 6.60085L23.5449 9.47087L22.5799 13.7217C22.5093 14.0342 22.6306 14.3573 22.8899 14.5447C23.0293 14.6454 23.1924 14.6967 23.3569 14.6967C23.4987 14.6967 23.6393 14.6585 23.7655 14.583L27.5001 12.351L31.2332 14.583C31.5064 14.7473 31.8508 14.7323 32.1095 14.5447C32.369 14.3567 32.4902 14.0335 32.4196 13.7217L31.4546 9.47087L34.7271 6.60143C34.9678 6.39085 35.0597 6.05828 34.9609 5.75397Z" fill="#FFC107"/>
</g>
<g clip-path="url(#clip2_53_1252)">
<path d="M54.9609 5.75397C54.8627 5.45024 54.5933 5.23451 54.2746 5.20579L49.9452 4.81267L48.2332 0.805653C48.107 0.51199 47.8195 0.321899 47.5001 0.321899C47.1807 0.321899 46.8932 0.51199 46.767 0.80634L45.055 4.81267L40.7249 5.20579C40.4067 5.2352 40.138 5.45024 40.0393 5.75397C39.9405 6.0577 40.0317 6.39085 40.2724 6.60085L43.5449 9.47087L42.5799 13.7217C42.5093 14.0342 42.6306 14.3573 42.8899 14.5447C43.0293 14.6454 43.1924 14.6967 43.3569 14.6967C43.4987 14.6967 43.6393 14.6585 43.7655 14.583L47.5001 12.351L51.2332 14.583C51.5064 14.7473 51.8508 14.7323 52.1095 14.5447C52.369 14.3567 52.4902 14.0335 52.4196 13.7217L51.4546 9.47087L54.7271 6.60143C54.9678 6.39085 55.0597 6.05828 54.9609 5.75397Z" fill="#FFC107"/>
</g>
<g clip-path="url(#clip3_53_1252)">
<path d="M74.9609 5.75397C74.8627 5.45024 74.5933 5.23451 74.2746 5.20579L69.9452 4.81267L68.2332 0.805653C68.107 0.51199 67.8195 0.321899 67.5001 0.321899C67.1807 0.321899 66.8932 0.51199 66.767 0.80634L65.055 4.81267L60.7249 5.20579C60.4067 5.2352 60.138 5.45024 60.0393 5.75397C59.9405 6.0577 60.0317 6.39085 60.2724 6.60085L63.5449 9.47087L62.5799 13.7217C62.5093 14.0342 62.6306 14.3573 62.8899 14.5447C63.0293 14.6454 63.1924 14.6967 63.3569 14.6967C63.4987 14.6967 63.6393 14.6585 63.7655 14.583L67.5001 12.351L71.2332 14.583C71.5064 14.7473 71.8508 14.7323 72.1095 14.5447C72.369 14.3567 72.4902 14.0335 72.4196 13.7217L71.4546 9.47087L74.7271 6.60143C74.9678 6.39085 75.0597 6.05828 74.9609 5.75397Z" fill="#FFC107"/>
</g>
<g clip-path="url(#clip4_53_1252)">
<path d="M94.9609 5.75397C94.8627 5.45024 94.5933 5.23451 94.2746 5.20579L89.9452 4.81267L88.2332 0.805653C88.107 0.51199 87.8195 0.321899 87.5001 0.321899C87.1807 0.321899 86.8932 0.51199 86.767 0.80634L85.055 4.81267L80.7249 5.20579C80.4067 5.2352 80.138 5.45024 80.0393 5.75397C79.9405 6.0577 80.0317 6.39085 80.2724 6.60085L83.5449 9.47087L82.5799 13.7217C82.5093 14.0342 82.6306 14.3573 82.8899 14.5447C83.0293 14.6454 83.1924 14.6967 83.3569 14.6967C83.4987 14.6967 83.6393 14.6585 83.7655 14.583L87.5001 12.351L91.2332 14.583C91.5064 14.7473 91.8508 14.7323 92.1095 14.5447C92.369 14.3567 92.4902 14.0335 92.4196 13.7217L91.4546 9.47087L94.7271 6.60143C94.9678 6.39085 95.0597 6.05828 94.9609 5.75397Z" fill="#818181"/>
</g>
<defs>
<clipPath id="clip0_53_1252">
<rect width="15" height="15" fill="white"/>
</clipPath>
<clipPath id="clip1_53_1252">
<rect width="15" height="15" fill="white" transform="translate(20)"/>
</clipPath>
<clipPath id="clip2_53_1252">
<rect width="15" height="15" fill="white" transform="translate(40)"/>
</clipPath>
<clipPath id="clip3_53_1252">
<rect width="15" height="15" fill="white" transform="translate(60)"/>
</clipPath>
<clipPath id="clip4_53_1252">
<rect width="15" height="15" fill="white" transform="translate(80)"/>
</clipPath>
</defs>
</svg>
