<svg width="413" height="413" viewBox="0 0 413 413" fill="none" xmlns="http://www.w3.org/2000/svg">
<g clip-path="url(#clip0_65_2386)">
<g clip-path="url(#clip1_65_2386)">
<path d="M275.423 152.298C274.403 152.298 273.373 152.008 272.461 151.402C269.998 149.768 269.331 146.452 270.97 143.997L328.803 57.3308C330.442 54.875 333.766 54.2091 336.228 55.844C338.69 57.4782 339.357 60.7936 337.719 63.2487L279.886 149.915C278.854 151.462 277.154 152.298 275.423 152.298Z" fill="#B1DBFC"/>
<path d="M259.653 156.436C258.847 156.436 258.029 156.253 257.26 155.869L207.585 131.055C204.941 129.734 203.871 126.525 205.195 123.888C206.519 121.25 209.737 120.183 212.382 121.505L262.057 146.319C264.701 147.64 265.771 150.848 264.447 153.485C263.507 155.355 261.617 156.436 259.653 156.436Z" fill="#B1DBFC"/>
<path d="M139.068 187.437C137.699 187.437 136.331 186.917 135.284 185.875C133.191 183.792 133.189 180.41 135.278 178.323L186.911 126.738C189 124.651 192.39 124.647 194.484 126.732C196.577 128.815 196.579 132.197 194.49 134.285L142.857 185.869C141.813 186.914 140.44 187.437 139.068 187.437Z" fill="#B1DBFC"/>
<path d="M73.5829 224.619C71.6376 224.619 69.7627 223.559 68.8143 221.714C67.4643 219.09 68.5027 215.871 71.1346 214.525L115.669 191.737C118.301 190.389 121.528 191.427 122.878 194.051C124.228 196.675 123.189 199.894 120.557 201.241L76.0227 224.028C75.2404 224.429 74.4053 224.619 73.5829 224.619Z" fill="#B1DBFC"/>
<path d="M61.0309 241.88C70.1758 241.88 77.5892 234.486 77.5892 225.365C77.5892 216.245 70.1758 208.851 61.0309 208.851C51.886 208.851 44.4727 216.245 44.4727 225.365C44.4727 234.486 51.886 241.88 61.0309 241.88Z" fill="#FF656F"/>
<path d="M130.494 207.182C139.639 207.182 147.052 199.788 147.052 190.667C147.052 181.547 139.639 174.153 130.494 174.153C121.349 174.153 113.936 181.547 113.936 190.667C113.936 199.788 121.349 207.182 130.494 207.182Z" fill="#FFA85D"/>
<path d="M199.957 137.785C209.102 137.785 216.515 130.392 216.515 121.271C216.515 112.15 209.102 104.757 199.957 104.757C190.812 104.757 183.398 112.15 183.398 121.271C183.398 130.392 190.812 137.785 199.957 137.785Z" fill="#FEE55A"/>
<path d="M269.416 172.483C278.56 172.483 285.974 165.09 285.974 155.969C285.974 146.848 278.56 139.455 269.416 139.455C260.271 139.455 252.857 146.848 252.857 155.969C252.857 165.09 260.271 172.483 269.416 172.483Z" fill="#43CB8E"/>
<path d="M338.879 68.3884C348.023 68.3884 355.437 60.9947 355.437 51.874C355.437 42.7533 348.023 35.3596 338.879 35.3596C329.734 35.3596 322.32 42.7533 322.32 51.874C322.32 60.9947 329.734 68.3884 338.879 68.3884Z" fill="#23A8FE"/>
<path d="M62.5604 225.365C62.5604 219.574 65.5518 214.482 70.0748 211.534C67.4745 209.839 64.3692 208.85 61.0309 208.85C51.8857 208.85 44.4727 216.244 44.4727 225.365C44.4727 234.486 51.8864 241.879 61.0309 241.879C64.3692 241.879 67.4745 240.89 70.0748 239.195C65.5511 236.248 62.5604 231.157 62.5604 225.365Z" fill="#FF4756"/>
<path d="M132.023 190.667C132.023 184.876 135.015 179.784 139.538 176.836C136.937 175.141 133.832 174.152 130.494 174.152C121.349 174.152 113.936 181.546 113.936 190.667C113.936 199.787 121.349 207.181 130.494 207.181C133.832 207.181 136.937 206.192 139.538 204.497C135.015 201.55 132.023 196.459 132.023 190.667Z" fill="#FF9839"/>
<path d="M201.486 121.271C201.486 115.479 204.478 110.388 209.001 107.44C206.4 105.744 203.295 104.756 199.957 104.756C190.812 104.756 183.398 112.149 183.398 121.27C183.398 130.391 190.812 137.785 199.957 137.785C203.295 137.785 206.4 136.796 209.001 135.101C204.478 132.154 201.486 127.062 201.486 121.271Z" fill="#FFD301"/>
<path d="M270.945 155.969C270.945 150.177 273.937 145.086 278.459 142.138C275.859 140.443 272.754 139.454 269.416 139.454C260.27 139.454 252.857 146.847 252.857 155.968C252.857 165.089 260.271 172.483 269.416 172.483C272.754 172.483 275.859 171.494 278.459 169.799C273.936 166.852 270.945 161.76 270.945 155.969Z" fill="#00BA66"/>
<path d="M340.408 51.874C340.408 46.0824 343.399 40.9911 347.922 38.0427C345.322 36.3482 342.217 35.3596 338.879 35.3596C329.733 35.3596 322.32 42.753 322.32 51.874C322.32 60.995 329.734 68.3884 338.879 68.3884C342.217 68.3884 345.322 67.3998 347.922 65.7045C343.399 62.7568 340.408 57.6655 340.408 51.874Z" fill="#0193FA"/>
<path d="M78.9372 286.493H43.1205C40.6469 286.493 38.6426 288.493 38.6426 290.959V389.272H83.4158V290.96C83.4151 288.494 81.4101 286.493 78.9372 286.493Z" fill="#FF656F"/>
<path d="M148.4 251.795H112.583C110.11 251.795 108.105 253.795 108.105 256.261V389.272H152.879V256.262C152.879 253.795 150.874 251.795 148.4 251.795Z" fill="#FFA85D"/>
<path d="M217.863 182.096H182.046C179.573 182.096 177.568 184.096 177.568 186.562V389.273H222.342V186.562C222.341 184.096 220.336 182.096 217.863 182.096Z" fill="#FEE55A"/>
<path d="M287.326 217.097H251.509C249.036 217.097 247.031 219.097 247.031 221.563V389.272H291.805V221.563C291.804 219.097 289.799 217.097 287.326 217.097Z" fill="#43CB8E"/>
<path d="M356.789 112.514H320.972C318.499 112.514 316.494 114.514 316.494 116.98V389.272H361.267V116.981C361.267 114.514 359.262 112.514 356.789 112.514Z" fill="#23A8FE"/>
<path d="M70.6363 286.493H43.1205C40.6469 286.493 38.6426 288.493 38.6426 290.959V389.272H66.159V290.96C66.1583 288.494 68.1634 286.493 70.6363 286.493Z" fill="#FF4756"/>
<path d="M140.1 251.795H112.583C110.11 251.795 108.105 253.795 108.105 256.261V389.272H135.622V256.262C135.622 253.795 137.626 251.795 140.1 251.795Z" fill="#FF9839"/>
<path d="M209.563 182.096H182.046C179.573 182.096 177.568 184.096 177.568 186.562V389.273H205.085V186.562C205.084 184.096 207.089 182.096 209.563 182.096Z" fill="#FFD301"/>
<path d="M279.025 217.097H251.509C249.036 217.097 247.031 219.097 247.031 221.563V389.272H274.548V221.563C274.547 219.097 276.552 217.097 279.025 217.097Z" fill="#00BA66"/>
<path d="M348.489 112.514H320.972C318.499 112.514 316.494 114.514 316.494 116.98V389.272H344.011V116.981C344.011 114.514 346.016 112.514 348.489 112.514Z" fill="#0193FA"/>
<path d="M373.251 394.613H26.6632C23.7055 394.613 21.3086 392.222 21.3086 389.272C21.3086 386.321 23.7062 383.932 26.6632 383.932H373.251C376.209 383.932 378.606 386.322 378.606 389.272C378.606 392.222 376.209 394.613 373.251 394.613Z" fill="#23A8FE"/>
<path d="M20 35H83V45H20V35Z" fill="#29485A"/>
<path d="M20 55H83V64H20V55Z" fill="#29485A"/>
<path d="M20 74H64V84H20V74Z" fill="#29485A"/>
</g>
</g>
<defs>
<clipPath id="clip0_65_2386">
<rect width="413" height="413" fill="white"/>
</clipPath>
<clipPath id="clip1_65_2386">
<rect width="360.207" height="359.253" fill="white" transform="translate(19.8516 35.3596)"/>
</clipPath>
</defs>
</svg>
