<svg width="571" height="650" viewBox="0 0 571 650" fill="none" xmlns="http://www.w3.org/2000/svg">
<g filter="url(#filter0_f_35_2791)">
<circle cx="197.5" cy="110.5" r="70.5" fill="white" fill-opacity="0.47"/>
</g>
<circle cx="197" cy="453" r="192.5" stroke="white" stroke-width="9"/>
<path d="M196.5 295C130.952 295 74.756 335.042 51.0391 392" stroke="#D6D6D6" stroke-opacity="0.29" stroke-width="9"/>
<path d="M65 452.5C65 379.322 124.098 320 197 320" stroke="#D6D6D6" stroke-opacity="0.29" stroke-width="9"/>
<path d="M299 443C299 387.219 253.333 342 197 342" stroke="#D6D6D6" stroke-opacity="0.29" stroke-width="9"/>
<path d="M188.571 362.349C218.908 358.67 247.204 373.202 262.243 397.27" stroke="#D6D6D6" stroke-opacity="0.29" stroke-width="9"/>
<path d="M322 463C322 518.781 276.333 564 220 564" stroke="#D6D6D6" stroke-opacity="0.29" stroke-width="9"/>
<path d="M221.672 589.464C257.052 589.464 288.984 574.851 311.648 551.389" stroke="#D6D6D6" stroke-opacity="0.29" stroke-width="9"/>
<rect x="197" y="155" width="2" height="109" fill="white"/>
<rect x="354.426" y="194.786" width="2" height="109" transform="rotate(33.1909 354.426 194.786)" fill="white"/>
<rect x="362.238" y="350.659" width="2" height="109" transform="rotate(-120.472 362.238 350.659)" fill="white"/>
<rect x="393.156" y="432.569" width="2" height="109" transform="rotate(-90 393.156 432.569)" fill="white"/>
<rect x="482.695" y="556.893" width="2" height="109" transform="rotate(103.653 482.695 556.893)" fill="white"/>
<g clip-path="url(#clip0_35_2791)">
<path d="M194.702 135.632C196.036 136.965 198.042 137.363 199.785 136.642C201.528 135.92 202.665 134.22 202.667 132.333V123H219C222.864 122.996 225.996 119.864 226 116V74C225.996 70.1356 222.864 67.0039 219 67H177C173.136 67.0039 170.004 70.1356 170 74V116C170.004 119.864 173.136 122.996 177 123H193.333V132.333C193.33 133.571 193.823 134.759 194.702 135.632ZM179.333 82.1667C178.689 82.1667 178.167 81.6443 178.167 81V76.3333C178.167 75.689 178.689 75.1667 179.333 75.1667H185.167V82.1667H179.333ZM187.5 75.1667H216.667C217.311 75.1667 217.833 75.689 217.833 76.3333V81C217.833 81.6443 217.311 82.1667 216.667 82.1667H187.5V75.1667ZM198 114.833C189.624 114.833 182.833 108.043 182.833 99.6667C182.833 91.2903 189.624 84.5 198 84.5C206.376 84.5 213.167 91.2903 213.167 99.6667C213.157 108.039 206.372 114.824 198 114.833ZM198 134.667C196.711 134.667 195.667 133.622 195.667 132.333V116.993C197.214 117.225 198.786 117.225 200.333 116.993V132.333C200.333 133.622 199.289 134.667 198 134.667ZM177 120.667C174.423 120.667 172.333 118.577 172.333 116V74C172.333 71.4227 174.423 69.3333 177 69.3333H219C221.577 69.3333 223.667 71.4227 223.667 74V116C223.667 118.577 221.577 120.667 219 120.667H202.667V116.516C209.472 114.641 214.482 108.856 215.363 101.852C216.244 94.8476 212.823 88.0016 206.694 84.5H216.667C218.6 84.5 220.167 82.933 220.167 81V76.3333C220.167 74.4003 218.6 72.8333 216.667 72.8333H179.333C177.4 72.8333 175.833 74.4003 175.833 76.3333V81C175.833 82.933 177.4 84.5 179.333 84.5H189.306C183.177 88.0016 179.756 94.8476 180.637 101.852C181.519 108.856 186.528 114.641 193.333 116.516V120.667H177Z" fill="white"/>
<path d="M192.167 91.5001H203.833C204.478 91.5001 205 90.9777 205 90.3334C205 89.6891 204.478 89.1667 203.833 89.1667H192.167C191.522 89.1667 191 89.6891 191 90.3334C191 90.9777 191.522 91.5001 192.167 91.5001Z" fill="white"/>
<path d="M193.334 94.9999C193.334 95.6443 193.856 96.1666 194.501 96.1666H207.334C207.978 96.1666 208.501 95.6443 208.501 94.9999C208.501 94.3556 207.978 93.8333 207.334 93.8333H194.501C193.856 93.8333 193.334 94.3556 193.334 94.9999Z" fill="#FC6C19"/>
<path d="M188.667 96.1666H189.833C190.478 96.1666 191 95.6443 191 94.9999C191 94.3556 190.478 93.8333 189.833 93.8333H188.667C188.022 93.8333 187.5 94.3556 187.5 94.9999C187.5 95.6443 188.022 96.1666 188.667 96.1666Z" fill="white"/>
<path d="M203.833 107.833H192.167C191.522 107.833 191 108.356 191 109C191 109.644 191.522 110.167 192.167 110.167H203.833C204.478 110.167 205 109.644 205 109C205 108.356 204.478 107.833 203.833 107.833Z" fill="#FC6C19"/>
<path d="M207.334 103.167H194.501C193.856 103.167 193.334 103.689 193.334 104.333C193.334 104.978 193.856 105.5 194.501 105.5H207.334C207.978 105.5 208.501 104.978 208.501 104.333C208.501 103.689 207.978 103.167 207.334 103.167Z" fill="white"/>
<path d="M189.833 103.167H188.667C188.022 103.167 187.5 103.689 187.5 104.333C187.5 104.978 188.022 105.5 188.667 105.5H189.833C190.478 105.5 191 104.978 191 104.333C191 103.689 190.478 103.167 189.833 103.167Z" fill="white"/>
<path d="M210.834 99.6667C210.834 99.0223 210.312 98.5 209.667 98.5H208.501C207.856 98.5 207.334 99.0223 207.334 99.6667C207.334 100.311 207.856 100.833 208.501 100.833H209.667C210.312 100.833 210.834 100.311 210.834 99.6667Z" fill="#FC6C19"/>
<path d="M204.999 99.6667C204.999 99.0223 204.477 98.5 203.833 98.5H186.333C185.688 98.5 185.166 99.0223 185.166 99.6667C185.166 100.311 185.688 100.833 186.333 100.833H203.833C204.477 100.833 204.999 100.311 204.999 99.6667Z" fill="white"/>
<path d="M207.333 78.6667C207.333 78.0223 206.811 77.5 206.167 77.5H192.167C191.522 77.5 191 78.0223 191 78.6667C191 79.311 191.522 79.8333 192.167 79.8333H206.167C206.811 79.8333 207.333 79.311 207.333 78.6667Z" fill="white"/>
<path d="M210.833 79.8333H213.166C213.81 79.8333 214.333 79.311 214.333 78.6667C214.333 78.0223 213.81 77.5 213.166 77.5H210.833C210.188 77.5 209.666 78.0223 209.666 78.6667C209.666 79.311 210.188 79.8333 210.833 79.8333Z" fill="#FC6C19"/>
</g>
<g clip-path="url(#clip1_35_2791)">
<path d="M387.965 160.138L389.782 159.532L390.74 162.407L388.923 163.012L387.965 160.138Z" fill="#D6D6D6"/>
<path d="M385.041 174.208H386.958V176.125H385.041V174.208Z" fill="#D6D6D6"/>
<path d="M386.001 161.75C381.773 161.75 378.334 157.021 378.334 151.208V150.25C378.334 146.023 381.773 142.583 386.001 142.583C390.228 142.583 393.667 146.023 393.667 150.25V151.208C393.667 157.021 390.228 161.75 386.001 161.75ZM386.001 144.5C382.829 144.5 380.251 147.079 380.251 150.25V151.208C380.251 155.964 382.829 159.833 386.001 159.833C389.172 159.833 391.751 155.964 391.751 151.208V150.25C391.751 147.079 389.172 144.5 386.001 144.5Z" fill="#D6D6D6"/>
<path d="M390.792 171.334C390.672 171.334 390.551 171.311 390.437 171.265L386.001 169.491L381.565 171.265C381.295 171.373 380.992 171.354 380.74 171.21C380.487 171.068 380.312 170.819 380.264 170.532L379.306 164.782C379.255 164.477 379.355 164.166 379.573 163.947L381.49 162.031C381.827 161.693 382.361 161.653 382.743 161.942L386.001 164.385L389.259 161.942C389.639 161.654 390.174 161.693 390.512 162.031L392.428 163.947C392.648 164.167 392.746 164.477 392.696 164.782L391.737 170.532C391.689 170.819 391.515 171.068 391.262 171.21C391.117 171.292 390.956 171.334 390.792 171.334ZM386.001 167.5C386.122 167.5 386.242 167.522 386.357 167.568L390.043 169.043L390.724 164.953L389.745 163.973L386.576 166.35C386.236 166.607 385.766 166.607 385.426 166.35L382.258 163.974L381.277 164.954L381.959 169.044L385.644 167.569C385.759 167.522 385.88 167.5 386.001 167.5Z" fill="#D6D6D6"/>
<path d="M371.626 179H369.709V173.25C369.709 170.478 371.34 168.008 374.072 166.642L379.822 163.767L380.68 165.482L374.93 168.357C372.861 169.392 371.626 171.22 371.626 173.25V179Z" fill="#D6D6D6"/>
<path d="M402.292 179H400.376V173.25C400.376 171.22 399.14 169.392 397.072 168.358L391.322 165.483L392.18 163.768L397.93 166.643C400.661 168.009 402.292 170.479 402.292 173.25V179Z" fill="#D6D6D6"/>
<path d="M388.876 151.208H386.959C385.513 151.208 384.184 150.693 383.126 149.738C382.067 150.693 380.738 151.208 379.292 151.208C378.763 151.208 378.334 150.779 378.334 150.25C378.334 149.721 378.763 149.291 379.292 149.291C380.504 149.291 381.595 148.743 382.369 147.746C382.731 147.278 383.52 147.278 383.883 147.746C384.656 148.743 385.747 149.291 386.959 149.291H388.876C389.405 149.291 389.834 149.721 389.834 150.25C389.834 150.779 389.405 151.208 388.876 151.208Z" fill="#D6D6D6"/>
<path d="M375.459 174.208H377.376V179H375.459V174.208Z" fill="#D6D6D6"/>
<path d="M394.625 174.208H396.542V179H394.625V174.208Z" fill="#D6D6D6"/>
<path d="M402.292 154.083C402.043 154.083 401.798 153.986 401.615 153.803L398.062 150.25H396.542C396.012 150.25 395.584 149.821 395.584 149.292C395.584 148.763 396.012 148.333 396.542 148.333H398.459C398.714 148.333 398.957 148.434 399.136 148.614L401.334 150.812V149.292C401.334 148.763 401.762 148.333 402.292 148.333C402.822 148.333 403.251 148.763 403.251 149.292V153.125C403.251 153.512 403.018 153.862 402.659 154.01C402.541 154.059 402.416 154.083 402.292 154.083Z" fill="#D6D6D6"/>
<path d="M406.126 150.25C405.596 150.25 405.167 149.821 405.167 149.292C405.167 148.763 405.596 148.333 406.126 148.333C406.654 148.333 407.084 147.903 407.084 147.375V135.875C407.084 135.347 406.654 134.917 406.126 134.917H386.959C386.431 134.917 386.001 135.347 386.001 135.875V139.708C386.001 140.237 385.571 140.667 385.042 140.667C384.513 140.667 384.084 140.237 384.084 139.708V135.875C384.084 134.29 385.374 133 386.959 133H406.126C407.711 133 409.001 134.29 409.001 135.875V147.375C409.001 148.96 407.711 150.25 406.126 150.25Z" fill="#D6D6D6"/>
<path d="M391.75 140.667H393.667V142.583H391.75V140.667Z" fill="#D6D6D6"/>
<path d="M395.584 140.667H397.501V142.583H395.584V140.667Z" fill="#D6D6D6"/>
<path d="M399.416 140.667H401.333V142.583H399.416V140.667Z" fill="#D6D6D6"/>
<path d="M369.708 163.667C369.585 163.667 369.46 163.644 369.341 163.594C368.984 163.446 368.75 163.096 368.75 162.708V159.833H365.875C364.29 159.833 363 158.543 363 156.958V145.458C363 143.873 364.29 142.583 365.875 142.583H377.375C377.904 142.583 378.333 143.013 378.333 143.542C378.333 144.071 377.904 144.5 377.375 144.5H365.875C365.347 144.5 364.917 144.93 364.917 145.458V156.958C364.917 157.487 365.347 157.917 365.875 157.917H369.708C370.237 157.917 370.667 158.345 370.667 158.875V160.395L372.864 158.197C373.043 158.017 373.288 157.917 373.542 157.917H377.375C377.904 157.917 378.333 158.345 378.333 158.875C378.333 159.405 377.904 159.833 377.375 159.833H373.938L370.386 163.386C370.203 163.569 369.958 163.667 369.708 163.667Z" fill="#D6D6D6"/>
<path d="M366.834 146.417H376.417V148.333H366.834V146.417Z" fill="#D6D6D6"/>
<path d="M366.834 150.25H376.417V152.167H366.834V150.25Z" fill="#D6D6D6"/>
<path d="M366.834 154.083H368.751V156H366.834V154.083Z" fill="#D6D6D6"/>
<path d="M370.666 154.083H372.583V156H370.666V154.083Z" fill="#D6D6D6"/>
</g>
<g clip-path="url(#clip2_35_2791)">
<path d="M510.352 272.292C507.71 272.292 505.561 270.142 505.561 267.5C505.561 264.858 507.71 262.708 510.352 262.708C512.994 262.708 515.144 264.858 515.144 267.5C515.144 270.142 512.994 272.292 510.352 272.292ZM510.352 264.625C508.767 264.625 507.477 265.915 507.477 267.5C507.477 269.085 508.767 270.375 510.352 270.375C511.937 270.375 513.227 269.085 513.227 267.5C513.227 265.915 511.937 264.625 510.352 264.625Z" fill="#D6D6D6"/>
<path d="M500.768 302C500.641 302 500.513 301.976 500.39 301.922C499.904 301.714 499.678 301.15 499.887 300.664L502.762 293.956C502.913 293.603 503.26 293.375 503.643 293.375H510.352C511.936 293.375 513.227 292.085 513.227 290.5V278.042C513.227 276.985 512.367 276.125 511.31 276.125H510.352C509.679 276.125 509.066 276.57 508.241 277.662C507.315 278.885 504.505 282.335 504.387 282.481C504.204 282.704 503.932 282.833 503.643 282.833H498.852C498.322 282.833 497.893 283.263 497.893 283.792V285.708C497.893 286.238 497.465 286.667 496.935 286.667C496.405 286.667 495.977 286.238 495.977 285.708V283.792C495.977 282.207 497.266 280.917 498.852 280.917H503.187C503.942 279.986 505.978 277.476 506.711 276.505C507.521 275.436 508.666 274.208 510.352 274.208H511.31C513.424 274.208 515.143 275.927 515.143 278.042V290.5C515.143 293.142 512.994 295.292 510.352 295.292H504.274L501.649 301.419C501.494 301.782 501.14 302 500.768 302Z" fill="#D6D6D6"/>
<path d="M496.934 302C496.835 302 496.732 301.984 496.632 301.95C496.13 301.783 495.858 301.241 496.026 300.738L499.204 291.203C499.724 289.637 501.187 288.583 502.84 288.583H505.559V285.708C505.559 285.179 505.988 284.75 506.518 284.75C507.048 284.75 507.476 285.179 507.476 285.708V289.542C507.476 290.071 507.048 290.5 506.518 290.5H502.84C502.014 290.5 501.282 291.026 501.023 291.809L497.844 301.344C497.71 301.746 497.336 302 496.934 302Z" fill="#D6D6D6"/>
<path d="M506.518 286.666C506.318 286.666 506.117 286.604 505.944 286.475C505.521 286.158 505.435 285.557 505.753 285.134L508.628 281.301C508.945 280.877 509.547 280.792 509.968 281.109C510.392 281.426 510.478 282.027 510.16 282.45L507.285 286.283C507.098 286.535 506.811 286.666 506.518 286.666Z" fill="#D6D6D6"/>
<path d="M491.186 285.708H493.102V302H491.186V285.708Z" fill="#D6D6D6"/>
<path d="M475.852 285.708H477.768V302H475.852V285.708Z" fill="#D6D6D6"/>
<path d="M506.518 286.667H473.935C473.406 286.667 472.977 286.238 472.977 285.708C472.977 285.179 473.406 284.75 473.935 284.75H506.518C507.048 284.75 507.477 285.179 507.477 285.708C507.477 286.238 507.048 286.667 506.518 286.667Z" fill="#D6D6D6"/>
<path d="M481.602 273.25C476.846 273.25 472.977 269.38 472.977 264.625C472.977 259.87 476.846 256 481.602 256C486.357 256 490.227 259.87 490.227 264.625C490.227 269.38 486.357 273.25 481.602 273.25ZM481.602 257.917C477.902 257.917 474.893 260.926 474.893 264.625C474.893 268.324 477.902 271.333 481.602 271.333C485.301 271.333 488.31 268.324 488.31 264.625C488.31 260.926 485.301 257.917 481.602 257.917Z" fill="#D6D6D6"/>
<path d="M485.434 265.583H481.601C481.072 265.583 480.643 265.154 480.643 264.625V261.75C480.643 261.221 481.072 260.792 481.601 260.792C482.13 260.792 482.559 261.221 482.559 261.75V263.667H485.434C485.963 263.667 486.393 264.096 486.393 264.625C486.393 265.154 485.963 265.583 485.434 265.583Z" fill="#D6D6D6"/>
<path d="M481.602 286.667C481.356 286.667 481.111 286.573 480.924 286.386L473.258 278.719C472.984 278.445 472.901 278.033 473.049 277.674C473.198 277.317 473.548 277.083 473.935 277.083H487.352C487.606 277.083 487.85 277.184 488.029 277.364L492.821 282.156C493.196 282.531 493.196 283.136 492.821 283.511C492.446 283.886 491.841 283.886 491.466 283.511L486.955 279H476.248L482.279 285.031C482.654 285.406 482.654 286.011 482.279 286.386C482.092 286.573 481.847 286.667 481.602 286.667Z" fill="#D6D6D6"/>
</g>
<g clip-path="url(#clip3_35_2791)">
<path d="M521.258 568.137L523.076 567.531L524.034 570.406L522.216 571.012L521.258 568.137Z" fill="#D6D6D6"/>
<path d="M518.334 582.208H520.251V584.125H518.334V582.208Z" fill="#D6D6D6"/>
<path d="M519.292 569.75C515.064 569.75 511.625 565.021 511.625 559.208V558.25C511.625 554.023 515.064 550.583 519.292 550.583C523.519 550.583 526.958 554.023 526.958 558.25V559.208C526.958 565.021 523.519 569.75 519.292 569.75ZM519.292 552.5C516.121 552.5 513.542 555.079 513.542 558.25V559.208C513.542 563.964 516.121 567.833 519.292 567.833C522.463 567.833 525.042 563.964 525.042 559.208V558.25C525.042 555.079 522.463 552.5 519.292 552.5Z" fill="#D6D6D6"/>
<path d="M524.084 579.333C523.963 579.333 523.842 579.311 523.727 579.265L519.292 577.491L514.857 579.265C514.587 579.373 514.283 579.353 514.031 579.21C513.778 579.068 513.603 578.819 513.555 578.532L512.597 572.782C512.546 572.477 512.646 572.166 512.864 571.947L514.781 570.031C515.118 569.692 515.652 569.653 516.034 569.942L519.292 572.385L522.55 569.942C522.932 569.653 523.466 569.692 523.803 570.031L525.719 571.947C525.939 572.167 526.039 572.477 525.987 572.782L525.028 578.532C524.981 578.819 524.806 579.068 524.553 579.21C524.408 579.292 524.247 579.333 524.084 579.333ZM519.292 575.5C519.413 575.5 519.533 575.522 519.648 575.568L523.334 577.043L524.016 572.953L523.035 571.973L519.867 574.35C519.527 574.607 519.057 574.607 518.717 574.35L515.549 571.974L514.568 572.954L515.25 577.044L518.936 575.569C519.05 575.522 519.171 575.5 519.292 575.5Z" fill="#D6D6D6"/>
<path d="M504.917 587H503V581.25C503 578.478 504.631 576.008 507.363 574.642L513.113 571.767L513.971 573.482L508.221 576.357C506.152 577.392 504.917 579.22 504.917 581.25V587Z" fill="#D6D6D6"/>
<path d="M535.583 587H533.666V581.25C533.666 579.22 532.431 577.392 530.363 576.358L524.613 573.483L525.471 571.768L531.221 574.643C533.952 576.009 535.583 578.479 535.583 581.25V587Z" fill="#D6D6D6"/>
<path d="M522.167 559.208H520.25C518.804 559.208 517.475 558.693 516.417 557.738C515.359 558.693 514.029 559.208 512.583 559.208C512.054 559.208 511.625 558.779 511.625 558.25C511.625 557.721 512.054 557.292 512.583 557.292C513.795 557.292 514.886 556.743 515.66 555.746C516.022 555.278 516.811 555.278 517.174 555.746C517.947 556.743 519.039 557.292 520.25 557.292H522.167C522.696 557.292 523.125 557.721 523.125 558.25C523.125 558.779 522.696 559.208 522.167 559.208Z" fill="#D6D6D6"/>
<path d="M508.75 582.208H510.667V587H508.75V582.208Z" fill="#D6D6D6"/>
<path d="M527.916 582.208H529.833V587H527.916V582.208Z" fill="#D6D6D6"/>
<path d="M525.042 549.625C524.513 549.625 524.084 549.196 524.084 548.667V544.833C524.084 544.304 524.513 543.875 525.042 543.875H527.917C531.542 543.875 534.14 543.028 535.86 541.285C536.041 541.102 536.286 541 536.542 541C536.799 541 537.044 541.102 537.225 541.286C539.335 543.425 542.188 543.875 544.209 543.875C544.739 543.875 545.167 544.304 545.167 544.833C545.167 545.362 544.739 545.792 544.209 545.792C541.15 545.792 538.519 544.919 536.539 543.259C534.482 544.962 531.649 545.792 527.917 545.792H526.001V548.667C526.001 549.196 525.571 549.625 525.042 549.625Z" fill="#D6D6D6"/>
<path d="M536.542 574.542C536.338 574.542 536.135 574.477 535.963 574.347C532.45 571.688 529.872 569.105 528.08 566.454C527.784 566.014 527.9 565.419 528.339 565.122C528.779 564.827 529.373 564.942 529.67 565.381C531.243 567.711 533.494 570.002 536.54 572.374C543.826 566.65 547.084 560.493 547.084 552.5V544.833C547.084 544.304 547.512 543.875 548.042 543.875C548.572 543.875 549 544.304 549 544.833V552.5C549 561.359 545.337 568.096 537.122 574.346C536.951 574.477 536.746 574.542 536.542 574.542Z" fill="#D6D6D6"/>
<path d="M536.541 569.75C536.315 569.75 536.087 569.67 535.907 569.51C530.455 564.688 527.916 559.283 527.916 552.5V548.667C527.916 548.151 528.323 547.728 528.839 547.708C531.692 547.602 534.127 546.997 536.075 545.912C536.366 545.75 536.718 545.75 537.008 545.912C538.956 546.997 541.391 547.602 544.243 547.708C544.759 547.728 545.166 548.151 545.166 548.667V552.5C545.166 559.283 542.628 564.688 537.176 569.51C536.995 569.67 536.767 569.75 536.541 569.75ZM529.833 549.572V552.5C529.833 558.511 531.908 563.169 536.541 567.496C541.174 563.168 543.249 558.511 543.249 552.5V549.572C540.693 549.381 538.442 548.798 536.541 547.835C534.64 548.798 532.389 549.381 529.833 549.572Z" fill="#D6D6D6"/>
<path d="M535.584 550.583H537.501V552.5H535.584V550.583Z" fill="#D6D6D6"/>
<path d="M535.584 554.417H537.501V556.333H535.584V554.417Z" fill="#D6D6D6"/>
<path d="M535.584 558.25H537.501V560.167H535.584V558.25Z" fill="#D6D6D6"/>
</g>
<g clip-path="url(#clip4_35_2791)">
<path d="M543 446C542.448 446 542 445.553 542 445V438C542 436.313 541.396 434.791 540.299 433.713L532.715 426.301C532.319 425.906 531.671 425.915 531.291 426.294C531.104 426.481 531 426.732 531 427C531 427.268 531.104 427.519 531.292 427.707L535.72 432.307C536.581 433.194 537 434.076 537 435V436C537 436.553 536.552 437 536 437C535.448 437 535 436.553 535 436V435C535 434.616 534.772 434.202 534.282 433.695L529.865 429.107C529.312 428.555 529 427.802 529 427C529 426.198 529.312 425.445 529.878 424.879C531.014 423.746 532.983 423.744 534.12 424.878L541.699 432.286C543.184 433.743 544 435.772 544 438V445C544 445.553 543.552 446 543 446Z" fill="#D6D6D6"/>
<path d="M533 446C532.448 446 532 445.553 532 445V442C532 440.903 531.474 439.888 530.293 438.707L526 434.414C525.355 433.77 525 432.912 525 432V417C525 416.199 525.312 415.445 525.879 414.879C527.012 413.745 528.988 413.745 530.121 414.879C530.688 415.445 531 416.199 531 417V422C531 422.552 530.552 423 530 423C529.448 423 529 422.552 529 422V417C529 416.733 528.896 416.482 528.707 416.293C528.329 415.915 527.671 415.915 527.293 416.293C527.104 416.482 527 416.733 527 417V432C527 432.378 527.147 432.732 527.414 433L531.707 437.293C532.691 438.277 534 439.836 534 442V445C534 445.553 533.552 446 533 446Z" fill="#D6D6D6"/>
<path d="M547 451H545V444C546.103 444 547 444.897 547 446V451Z" fill="#D6D6D6"/>
<path d="M531 451H529V446C529 444.897 529.897 444 531 444V451Z" fill="#D6D6D6"/>
<path d="M545 446H539C538.448 446 538 445.553 538 445C538 444.447 538.448 444 539 444H545C545.552 444 546 444.447 546 445C546 445.553 545.552 446 545 446Z" fill="#D6D6D6"/>
<path d="M535 446H531C530.448 446 530 445.553 530 445C530 444.447 530.448 444 531 444H535C535.552 444 536 444.447 536 445C536 445.553 535.552 446 535 446Z" fill="#D6D6D6"/>
<path d="M553 442C552.447 442 552 441.553 552 441V438C552 435.772 552.816 433.743 554.299 432.287L561.887 424.87C563.006 423.753 564.987 423.745 566.121 424.878C566.688 425.443 567 426.197 567 427C567 427.803 566.687 428.557 566.12 429.123L561.721 433.694C561.229 434.201 561 434.615 561 435V436C561 436.553 560.553 437 560 437C559.447 437 559 436.553 559 436V435C559 434.075 559.42 433.193 560.282 432.304L564.693 427.721C564.896 427.518 565 427.268 565 427C565 426.732 564.896 426.482 564.708 426.294C564.327 425.913 563.672 425.914 563.293 426.293L555.699 433.714C554.604 434.791 554 436.313 554 438V441C554 441.553 553.553 442 553 442Z" fill="#D6D6D6"/>
<path d="M563 446C562.447 446 562 445.553 562 445V442C562 439.836 563.309 438.277 564.293 437.293L568.586 433C568.853 432.732 569 432.378 569 432V417C569 416.733 568.896 416.482 568.706 416.292C568.329 415.915 567.671 415.915 567.294 416.292C567.104 416.482 567 416.733 567 417V422C567 422.552 566.553 423 566 423C565.447 423 565 422.552 565 422V417C565 416.2 565.312 415.446 565.878 414.879C567.011 413.745 568.989 413.745 570.122 414.879C570.688 415.446 571 416.2 571 417V432C571 432.912 570.645 433.77 570 434.414L565.707 438.707C564.526 439.888 564 440.903 564 442V445C564 445.553 563.553 446 563 446Z" fill="#D6D6D6"/>
<path d="M567 451H565V446H551V451H549V446C549 444.897 549.897 444 551 444H565C566.103 444 567 444.897 567 446V451Z" fill="#D6D6D6"/>
<path d="M548 419C545.243 419 543 416.757 543 414V412C543 409.243 545.243 407 548 407C550.757 407 553 409.243 553 412V414C553 416.757 550.757 419 548 419ZM548 409C546.346 409 545 410.346 545 412V414C545 415.654 546.346 417 548 417C549.654 417 551 415.654 551 414V412C551 410.346 549.654 409 548 409Z" fill="#D6D6D6"/>
<path d="M551 429H545C541.625 429 539.387 426.801 539.293 426.707C539.105 426.52 539 426.265 539 426V422C539 421.666 539.167 421.354 539.445 421.168L545 417.465V417H547V418C547 418.334 546.833 418.646 546.555 418.832L541 422.535V425.543C541.6 426.017 543.075 427 545 427H551C552.944 427 554.405 426.022 555 425.546V422.535L549.445 418.832C549.167 418.646 549 418.334 549 418V417H551V417.465L556.555 421.168C556.833 421.354 557 421.666 557 422V426C557 426.265 556.895 426.52 556.707 426.707C556.613 426.801 554.375 429 551 429Z" fill="#D6D6D6"/>
</g>
<g filter="url(#filter1_f_35_2791)">
<circle cx="198.5" cy="161.5" r="8.5" fill="white"/>
<circle cx="198.5" cy="161.5" r="10.5" stroke="#FFBA57" stroke-width="4"/>
</g>
<g filter="url(#filter2_f_35_2791)">
<circle cx="354.5" cy="195.5" r="10.5" fill="white"/>
<circle cx="354.5" cy="195.5" r="12.5" stroke="#98DB7C" stroke-width="4"/>
</g>
<g filter="url(#filter3_f_35_2791)">
<circle cx="451.5" cy="296.5" r="10.5" fill="white"/>
<circle cx="451.5" cy="296.5" r="12.5" stroke="#21AEB7" stroke-width="4"/>
</g>
<g filter="url(#filter4_f_35_2791)">
<circle cx="497.5" cy="430.5" r="10.5" fill="white"/>
<circle cx="497.5" cy="430.5" r="12.5" stroke="#960000" stroke-width="4"/>
</g>
<g filter="url(#filter5_f_35_2791)">
<circle cx="479.5" cy="557.5" r="10.5" fill="white"/>
<circle cx="479.5" cy="557.5" r="12.5" stroke="#3B56B4" stroke-width="4"/>
</g>
<defs>
<filter id="filter0_f_35_2791" x="87" y="0" width="221" height="221" filterUnits="userSpaceOnUse" color-interpolation-filters="sRGB">
<feFlood flood-opacity="0" result="BackgroundImageFix"/>
<feBlend mode="normal" in="SourceGraphic" in2="BackgroundImageFix" result="shape"/>
<feGaussianBlur stdDeviation="20" result="effect1_foregroundBlur_35_2791"/>
</filter>
<filter id="filter1_f_35_2791" x="179" y="142" width="39" height="39" filterUnits="userSpaceOnUse" color-interpolation-filters="sRGB">
<feFlood flood-opacity="0" result="BackgroundImageFix"/>
<feBlend mode="normal" in="SourceGraphic" in2="BackgroundImageFix" result="shape"/>
<feGaussianBlur stdDeviation="3.5" result="effect1_foregroundBlur_35_2791"/>
</filter>
<filter id="filter2_f_35_2791" x="333" y="174" width="43" height="43" filterUnits="userSpaceOnUse" color-interpolation-filters="sRGB">
<feFlood flood-opacity="0" result="BackgroundImageFix"/>
<feBlend mode="normal" in="SourceGraphic" in2="BackgroundImageFix" result="shape"/>
<feGaussianBlur stdDeviation="3.5" result="effect1_foregroundBlur_35_2791"/>
</filter>
<filter id="filter3_f_35_2791" x="430" y="275" width="43" height="43" filterUnits="userSpaceOnUse" color-interpolation-filters="sRGB">
<feFlood flood-opacity="0" result="BackgroundImageFix"/>
<feBlend mode="normal" in="SourceGraphic" in2="BackgroundImageFix" result="shape"/>
<feGaussianBlur stdDeviation="3.5" result="effect1_foregroundBlur_35_2791"/>
</filter>
<filter id="filter4_f_35_2791" x="476" y="409" width="43" height="43" filterUnits="userSpaceOnUse" color-interpolation-filters="sRGB">
<feFlood flood-opacity="0" result="BackgroundImageFix"/>
<feBlend mode="normal" in="SourceGraphic" in2="BackgroundImageFix" result="shape"/>
<feGaussianBlur stdDeviation="3.5" result="effect1_foregroundBlur_35_2791"/>
</filter>
<filter id="filter5_f_35_2791" x="458" y="536" width="43" height="43" filterUnits="userSpaceOnUse" color-interpolation-filters="sRGB">
<feFlood flood-opacity="0" result="BackgroundImageFix"/>
<feBlend mode="normal" in="SourceGraphic" in2="BackgroundImageFix" result="shape"/>
<feGaussianBlur stdDeviation="3.5" result="effect1_foregroundBlur_35_2791"/>
</filter>
<clipPath id="clip0_35_2791">
<rect width="70" height="70" fill="white" transform="translate(163 67)"/>
</clipPath>
<clipPath id="clip1_35_2791">
<rect width="46" height="46" fill="white" transform="translate(363 133)"/>
</clipPath>
<clipPath id="clip2_35_2791">
<rect width="46" height="46" fill="white" transform="translate(471 256)"/>
</clipPath>
<clipPath id="clip3_35_2791">
<rect width="46" height="46" fill="white" transform="translate(503 541)"/>
</clipPath>
<clipPath id="clip4_35_2791">
<rect width="46" height="46" fill="white" transform="translate(525 406)"/>
</clipPath>
</defs>
</svg>
