<svg width="133" height="59" viewBox="0 0 133 59" fill="none" xmlns="http://www.w3.org/2000/svg">
<g clip-path="url(#clip0_47_1093)">
<path d="M31.2787 30.437V38.7098H36.3879C37.6027 38.7098 38.6099 38.3019 39.4095 37.4862C40.2275 36.6705 40.6365 35.7026 40.6365 34.5764C40.6365 33.4746 40.2275 32.5128 39.4095 31.6971C38.6099 30.857 37.6027 30.437 36.3879 30.437H31.2787ZM31.2787 41.6256V51.2194H28.2266V27.5272H36.3208C38.3779 27.5272 40.1237 28.209 41.5643 29.5787C43.0232 30.9483 43.7557 32.6102 43.7557 34.5764C43.7557 36.5853 43.0232 38.2593 41.5643 39.6046C40.1481 40.9499 38.4023 41.6256 36.3208 41.6256H31.2787Z" fill="white"/>
<path d="M47.9662 46.252C47.9662 47.0495 48.3019 47.713 48.9795 48.2426C49.651 48.7722 50.4445 49.034 51.3479 49.034C52.6298 49.034 53.7774 48.5591 54.7846 47.6095C55.7918 46.666 56.2924 45.552 56.2924 44.2675C55.3401 43.5188 54.0155 43.1475 52.3124 43.1475C51.0732 43.1475 50.0416 43.4396 49.2115 44.0362C48.3813 44.6328 47.9662 45.3754 47.9662 46.252ZM51.9156 34.479C54.1681 34.479 55.9505 35.0756 57.2568 36.2809C58.5631 37.4801 59.2163 39.1298 59.2163 41.2238V51.2193H56.2924V48.967H56.1642C54.9006 50.8237 53.2158 51.7489 51.116 51.7489C49.3274 51.7489 47.8258 51.2193 46.6233 50.1601C45.4146 49.1009 44.8164 47.7739 44.8164 46.1911C44.8164 44.511 45.4512 43.1779 46.7209 42.1856C47.9967 41.1934 49.6937 40.6942 51.8119 40.6942C53.6309 40.6942 55.1203 41.029 56.2924 41.6865V40.9925C56.2924 39.9333 55.8712 39.0385 55.0349 38.2958C54.1925 37.5592 53.2097 37.1879 52.0804 37.1879C50.3774 37.1879 49.0283 37.9062 48.0333 39.3367L45.3475 37.6505C46.8247 35.5321 49.0161 34.479 51.9156 34.479Z" fill="white"/>
<path d="M81.7112 51.4811C80.3805 51.4811 79.2817 51.0732 78.4088 50.2575C77.5359 49.4418 77.0842 48.3034 77.0659 46.8486V37.7844H74.2091V35.0025H77.0659V30.0413H80.118V35.0025H84.098V37.7844H80.118V45.8563C80.118 46.9399 80.3256 47.6704 80.7468 48.0599C81.1679 48.4435 81.6441 48.6383 82.1751 48.6383C82.4193 48.6383 82.6574 48.6078 82.8893 48.553C83.1213 48.4982 83.335 48.4252 83.5364 48.34L84.4948 51.0549C83.7012 51.3411 82.7734 51.4811 81.7112 51.4811ZM62.666 35.0025H65.5838V37.6505H65.7181C66.6216 35.5808 68.4956 34.5398 71.3218 34.5398L71.9567 34.6068V37.7844L70.5954 37.6505C69.1792 37.6505 68.0133 38.0888 67.0916 38.9593C66.1759 39.8298 65.7181 40.9377 65.7181 42.283V51.2193H62.666V35.0025Z" fill="white"/>
<path d="M87.1797 35.0025H90.1036V37.2549H90.2318C90.6957 36.4635 91.4099 35.8 92.3744 35.2704C93.3389 34.7408 94.3339 34.479 95.3777 34.479C97.3677 34.479 98.8998 35.0451 99.9742 36.1774C101.042 37.3157 101.58 38.9289 101.58 41.029V51.2193H98.5275V41.2238C98.4603 38.5758 97.1235 37.2549 94.517 37.2549C93.2961 37.2549 92.2767 37.7479 91.4588 38.728C90.6408 39.7081 90.2318 40.8829 90.2318 42.2526V51.2193H87.1797V35.0025Z" fill="white"/>
<path d="M107.588 41.1569H116.909C116.823 40.0368 116.365 39.1054 115.535 38.3628C114.705 37.6262 113.594 37.2549 112.196 37.2549C111.049 37.2549 110.06 37.6079 109.23 38.3141C108.399 39.0202 107.85 39.9698 107.588 41.1569ZM112.465 51.7489C110.078 51.7489 108.106 50.9332 106.562 49.2957C105.012 47.6643 104.236 45.6068 104.236 43.1109C104.236 40.6394 104.987 38.5819 106.495 36.9383C107.997 35.3008 109.919 34.479 112.263 34.479C114.675 34.479 116.597 35.2521 118.02 36.8105C119.448 38.3628 120.162 40.542 120.162 43.3422L120.132 43.6771H107.356C107.398 45.2598 107.929 46.5442 108.949 47.5121C109.962 48.4861 111.183 48.967 112.599 48.967C114.546 48.967 116.072 47.9991 117.177 46.0572L119.894 47.3782C119.167 48.7479 118.154 49.8192 116.86 50.5862C115.566 51.3593 114.101 51.7489 112.465 51.7489Z" fill="white"/>
<path d="M126.004 51.2194H122.945V35.0026H125.869V37.6506H126.004C126.309 36.7923 126.944 36.0618 127.908 35.453C128.873 34.8443 129.819 34.5399 130.747 34.5399C131.632 34.5399 132.382 34.6738 132.999 34.9417L132.071 37.8819C131.699 37.7297 131.101 37.6506 130.283 37.6506C129.129 37.6506 128.128 38.1132 127.279 39.0446C126.425 39.9699 126.004 41.0473 126.004 42.2831V51.2194Z" fill="white"/>
<path d="M35.1427 13.6844V15.748H40.0994C39.9407 17.0568 39.3974 18.0673 38.4757 18.7978C37.5722 19.51 36.4613 19.8631 35.1427 19.8631C33.6106 19.8631 32.3226 19.3274 31.2727 18.2621C30.2288 17.2029 29.7039 15.9063 29.7039 14.3662C29.7039 12.8261 30.2288 11.5295 31.2727 10.4703C32.3226 9.40497 33.6106 8.86927 35.1427 8.86927C36.5711 8.86927 37.8164 9.36236 38.8785 10.3424L40.3436 8.88754C38.8724 7.49352 37.1388 6.79956 35.1427 6.79956C33.7876 6.79956 32.4996 7.14654 31.291 7.83442C30.0945 8.51012 29.1545 9.44149 28.4647 10.6224C27.7871 11.779 27.4453 13.027 27.4453 14.3662C27.4453 15.7176 27.7871 16.9716 28.4647 18.1282C29.1423 19.297 30.0823 20.2223 31.291 20.898C32.4996 21.5858 33.7876 21.9328 35.1427 21.9328C37.1877 21.9328 38.8846 21.2936 40.2276 20.0153C41.5644 18.743 42.2298 17.069 42.2298 14.9749C42.2298 14.4819 42.1931 14.0496 42.1199 13.6844H35.1427Z" fill="#487CBF"/>
<path d="M49.8157 19.163C49.2847 19.7292 48.6376 20.0153 47.8746 20.0153C47.0933 20.0153 46.4401 19.7292 45.909 19.163C45.378 18.5969 45.1155 17.8969 45.1155 17.0629C45.1155 16.1985 45.378 15.4984 45.909 14.9567C46.4401 14.3905 47.0933 14.1105 47.8746 14.1105C48.6498 14.1105 49.303 14.3905 49.8341 14.9567C50.3651 15.4984 50.6276 16.1985 50.6276 17.0629C50.6276 17.8847 50.359 18.5847 49.8157 19.163ZM47.8746 12.1869C46.4767 12.1869 45.3108 12.6556 44.3769 13.5931C43.4368 14.5123 42.9668 15.6689 42.9668 17.0629C42.9668 18.4265 43.4429 19.5831 44.3891 20.5266C45.3291 21.4641 46.4889 21.9328 47.8746 21.9328C49.2542 21.9328 50.414 21.4641 51.3479 20.5266C52.3002 19.5831 52.7763 18.4265 52.7763 17.0629C52.7763 15.6689 52.3002 14.5123 51.3479 13.5931C50.414 12.6556 49.2542 12.1869 47.8746 12.1869Z" fill="#EE362C"/>
<path d="M75.2051 21.6346H77.3477V7.31702H75.2051V21.6346Z" fill="#00AC4E"/>
<path d="M60.5111 19.163C59.98 19.7292 59.3329 20.0153 58.5638 20.0153C57.7886 20.0153 57.1354 19.7292 56.6044 19.163C56.0733 18.5969 55.8108 17.8969 55.8108 17.0629C55.8108 16.1985 56.0733 15.4984 56.6044 14.9567C57.1354 14.3905 57.7886 14.1105 58.5638 14.1105C59.3452 14.1105 59.9983 14.3905 60.5294 14.9567C61.0604 15.4984 61.3229 16.1985 61.3229 17.0629C61.3229 17.8847 61.0543 18.5847 60.5111 19.163ZM58.5638 12.1869C57.172 12.1869 56.0061 12.6556 55.0722 13.5931C54.1321 14.5123 53.6621 15.6689 53.6621 17.0629C53.6621 18.4265 54.1382 19.5831 55.0905 20.5266C56.0244 21.4641 57.1843 21.9328 58.5638 21.9328C59.9495 21.9328 61.1093 21.4641 62.0432 20.5266C62.9955 19.5831 63.4716 18.4265 63.4716 17.0629C63.4716 15.6689 62.9955 14.5123 62.0432 13.5931C61.1093 12.6556 59.9495 12.1869 58.5638 12.1869Z" fill="#FDB614"/>
<path d="M81.2538 14.8836C81.797 14.3418 82.4014 14.074 83.0667 14.074C83.4818 14.074 83.8603 14.1653 84.196 14.3601C84.5256 14.5488 84.7576 14.7984 84.8797 15.1028L80.5151 16.9107C80.4846 16.0889 80.7349 15.4132 81.2538 14.8836ZM83.2315 20.0153C82.1572 20.0153 81.3697 19.5222 80.8631 18.536L87.3946 15.8454L87.1749 15.2915C86.9978 14.8349 86.7781 14.4149 86.4973 14.0314C86.2226 13.654 85.9052 13.3252 85.545 13.0452C85.1849 12.7713 84.7942 12.5582 84.3608 12.4121C83.9274 12.2599 83.4757 12.1869 82.9935 12.1869C81.6872 12.1869 80.5884 12.6495 79.6972 13.5748C78.8243 14.5062 78.3848 15.6689 78.3848 17.0629C78.3848 18.4386 78.8487 19.5952 79.7704 20.5266C80.6983 21.4641 81.852 21.9328 83.2315 21.9328C84.959 21.9328 86.3142 21.2145 87.3031 19.7718L85.6366 18.6639C85.0323 19.5648 84.2326 20.0153 83.2315 20.0153Z" fill="#EE362C"/>
<path d="M71.0782 19.1813C70.5715 19.7353 69.955 20.0153 69.2225 20.0153C68.4595 20.0153 67.8124 19.7292 67.2814 19.163C66.7625 18.5969 66.5061 17.903 66.5061 17.0812C66.5061 16.2411 66.7686 15.541 67.2997 14.9749C67.8429 14.3966 68.4839 14.1105 69.2225 14.1105C69.9672 14.1105 70.5837 14.3905 71.0782 14.9567C71.5787 15.535 71.8351 16.2411 71.8351 17.0812C71.8351 17.903 71.5787 18.603 71.0782 19.1813ZM71.6886 13.2765H71.6093C70.9927 12.5521 70.1381 12.1869 69.0394 12.1869C67.7819 12.1869 66.6831 12.6678 65.7492 13.6296C64.8213 14.5853 64.3574 15.7358 64.3574 17.0812C64.3574 18.4082 64.8213 19.5526 65.7492 20.5084C66.6953 21.458 67.7941 21.9328 69.0394 21.9328C70.1381 21.9328 70.9927 21.5615 71.6093 20.8249H71.6886V21.3241C71.6886 23.3633 70.8157 24.386 69.076 24.386C68.5205 24.386 68.0261 24.2278 67.5988 23.9051C67.1654 23.5886 66.8357 23.1685 66.616 22.6511L64.7481 23.4242C64.9312 23.8564 65.1693 24.246 65.4501 24.5991C65.737 24.9461 66.0666 25.2504 66.439 25.5C66.8174 25.7557 67.2264 25.9505 67.672 26.0905C68.1176 26.2366 68.5816 26.3036 69.076 26.3036C70.5349 26.3036 71.6703 25.8653 72.4883 24.9887C73.3123 24.106 73.7213 22.852 73.7213 21.2328V12.4852H71.6886V13.2765Z" fill="#487CBF"/>
<path d="M0 59H15V0H0V59Z" fill="#487CBF"/>
</g>
<defs>
<clipPath id="clip0_47_1093">
<rect width="133" height="59" fill="white"/>
</clipPath>
</defs>
</svg>
